<?xml version="1.0" encoding="UTF-8"?>
<svg xmlns="http://www.w3.org/2000/svg" width="520" height="220" viewBox="0 0 520 220" role="img" aria-label="Mây">
  <defs>
    <linearGradient id="c" x1="0" y1="0" x2="0" y2="1">
      <stop offset="0" stop-color="#fff4dc"/>
      <stop offset="1" stop-color="#ffd9b3"/>
    </linearGradient>
    <filter id="soft" x="-20%" y="-20%" width="140%" height="140%">
      <feGaussianBlur stdDeviation="6"/>
    </filter>
  </defs>
  <path d="M165 180
           C120 180 90 155 90 125
           C90 98 112 76 145 73
           C158 45 188 28 225 34
           C245 16 275 10 305 18
           C335 26 355 46 362 73
           C395 76 420 98 420 125
           C420 155 392 180 348 180
           Z"
        fill="url(#c)" opacity="0.95"/>
  <path d="M160 175
           C118 175 92 151 92 126
           C92 104 111 86 139 83
           C150 58 175 45 206 50
           C224 34 249 30 275 36
           C301 42 319 58 325 83
           C354 86 376 104 376 126
           C376 151 351 175 310 175
           Z" fill="#fff" opacity="0.55" filter="url(#soft)"/>
</svg>
